# xmcd CD database file
#
# Track frame offsets:
#	150
#	29830
#	57830
#	71478
#	133075
#	152465
#	179423
#	218415
#
# Disc length: 3159 seconds
#
# Revision: 1
# Processed by: cddbd v1.5.2PL0 Copyright (c) Steve Scherf et al.
# Submitted via: CDex 1.70beta2
#
DISCID=6d0c5508
DTITLE=Mat Maneri - Fifty-One Sorrows
DYEAR=1997
DGENRE=Jazz
TTITLE0=Blessed
TTITLE1=Tone Dialing
TTITLE2=Ph Level
TTITLE3=Fifty-One Sorrows
TTITLE4=Power Street
TTITLE5=Tone Dialing (alternate take)
TTITLE6=OCD
TTITLE7=Through In
EXTD=YEAR: 1997
EXTT0=
EXTT1=
EXTT2=
EXTT3=
EXTT4=
EXTT5=
EXTT6=
EXTT7=
PLAYORDER=
